<?xml version="1.0" standalone="no"?>
<!DOCTYPE svg PUBLIC "-//W3C//DTD SVG 20010904//EN"
 "http://www.w3.org/TR/2001/REC-SVG-20010904/DTD/svg10.dtd">
<svg version="1.0" xmlns="http://www.w3.org/2000/svg"
 width="270.000000pt" height="270.000000pt" viewBox="0 0 270.000000 270.000000"
 preserveAspectRatio="xMidYMid meet">
<metadata>
Created by potrace 1.11, written by Peter Selinger 2001-2013
</metadata>
<g transform="translate(0.000000,270.000000) scale(0.100000,-0.100000)"
fill="#000000" stroke="none">
<path d="M1172 2575 c-4 -9 -28 -19 -52 -23 -32 -6 -45 -13 -44 -24 1 -15 -3
-15 -39 -2 -65 23 -150 18 -193 -11 -21 -14 -51 -25 -70 -25 -21 0 -42 -8 -55
-21 -19 -19 -28 -20 -90 -14 -77 8 -92 -3 -71 -51 10 -20 9 -24 -4 -24 -12 0
-14 -7 -9 -34 5 -23 2 -42 -10 -59 -10 -15 -14 -34 -10 -49 4 -14 0 -51 -9
-84 -10 -40 -15 -106 -15 -209 1 -202 0 -221 -6 -360 -5 -97 -3 -124 9 -140
14 -19 15 -19 21 10 4 17 10 41 15 55 7 22 8 21 8 -11 -1 -41 7 -59 28 -59 18
0 19 -72 2 -101 -11 -17 -10 -22 6 -34 12 -9 20 -28 20 -49 1 -19 5 -38 9 -42
14 -14 8 -82 -8 -88 -17 -6 -21 -46 -5 -46 6 0 10 6 11 13 0 6 5 -1 11 -16 7
-20 15 -26 28 -22 12 4 19 -1 23 -15 3 -11 1 -20 -5 -20 -6 0 -8 -6 -5 -14 3
-8 -2 -16 -15 -19 -21 -6 -22 -44 0 -39 18 3 15 -76 -4 -95 -16 -17 -12 -62 8
-74 6 -4 8 -12 4 -18 -4 -6 -2 -20 4 -31 8 -15 7 -47 -4 -122 -11 -72 -12
-105 -5 -114 6 -7 8 -18 4 -24 -4 -6 -2 -17 4 -24 6 -7 14 -46 17 -87 5 -56
13 -81 30 -102 13 -16 24 -33 24 -37 0 -5 9 -18 20 -28 17 -16 32 -18 94 -14
57 3 88 0 137 -16 77 -25 190 -40 357 -49 117 -6 124 -5 146 16 12 12 34 24
47 26 13 3 25 9 27 15 2 5 9 10 16 10 6 0 19 9 29 20 9 11 28 20 42 20 20 0
25 5 25 25 0 22 4 25 39 25 22 0 52 5 66 10 23 9 32 6 60 -17 18 -16 35 -36
38 -45 3 -10 17 -22 32 -28 33 -13 55 -1 120 65 40 41 46 44 81 38 22 -3 47
-10 57 -15 24 -12 34 -2 21 20 -16 25 -9 90 12 113 14 15 16 24 8 36 -15 24
-32 27 -37 6 -3 -10 -5 -3 -6 15 0 19 -7 46 -15 60 -25 48 -55 257 -62 432 -2
52 -6 101 -10 110 -14 35 -21 197 -11 248 8 38 8 58 0 71 -7 11 -8 23 -1 34 7
13 5 19 -7 23 -12 5 -13 10 -4 20 7 9 9 43 6 101 -3 49 -1 107 5 130 7 27 7
47 0 59 -7 12 -7 26 0 43 6 15 12 53 14 86 5 101 16 189 26 202 12 16 2 33
-20 33 -14 0 -17 -10 -16 -57 1 -57 -9 -93 -25 -93 -4 0 -8 25 -8 57 0 42 -5
59 -18 69 -14 11 -15 17 -6 41 l11 28 -5 -27 c-3 -16 -1 -28 4 -28 17 0 30 35
41 107 5 37 12 80 15 96 3 15 2 27 -3 27 -4 0 -25 25 -47 55 -22 30 -45 53
-52 51 -6 -3 -19 1 -29 9 -14 9 -24 10 -42 2 -17 -8 -25 -8 -31 1 -9 15 -53
-4 -89 -38 -12 -11 -22 -17 -22 -12 0 5 7 15 15 22 14 12 21 40 10 40 -21 0
-82 -35 -108 -62 -28 -29 -29 -30 -14 -6 21 34 22 49 2 42 -14 -6 -19 5 -16
34 2 15 -17 42 -30 42 -4 0 -10 -9 -14 -20 -3 -11 -12 -19 -18 -17 -7 1 -11
-5 -9 -13 1 -8 -9 0 -24 18 -15 19 -33 32 -44 30 -10 -2 -26 4 -36 13 -11 9
-33 20 -51 23 -26 6 -32 4 -38 -13 -3 -12 -13 -21 -22 -21 -13 0 -13 3 -3 15
24 29 -15 16 -61 -20 -41 -32 -44 -33 -51 -15 -8 23 -19 25 -36 8 -17 -17 -24
-5 -16 26 6 26 27 35 39 16 4 -6 10 -8 15 -5 6 4 4 14 -3 25 -14 24 -62 27
-75 5z m698 -385 c0 -17 -7 -20 -39 -20 -46 0 -56 -11 -65 -67 -10 -68 -49
-143 -103 -203 -57 -62 -114 -94 -222 -126 -40 -11 -77 -28 -82 -36 -4 -8 -5
-47 -2 -86 l6 -72 153 7 154 6 0 -91 0 -92 -67 0 c-37 0 -107 -5 -156 -11
l-90 -12 7 -66 c3 -36 6 -83 6 -104 l0 -38 162 2 163 1 31 -135 c17 -74 39
-159 49 -188 22 -69 103 -275 122 -312 14 -27 13 -28 -8 -25 -17 2 -29 21 -56
88 -68 167 -95 247 -132 390 l-38 145 -104 3 c-57 2 -123 0 -146 -3 l-43 -6 0
-44 c0 -70 4 -75 72 -75 51 0 59 -2 56 -17 -2 -14 -16 -19 -61 -23 -31 -3 -57
-8 -57 -12 0 -5 0 -15 0 -23 0 -11 13 -15 54 -15 49 0 77 -12 63 -27 -3 -2
-33 -7 -67 -10 -48 -5 -60 -9 -56 -20 4 -8 6 -42 6 -75 0 -51 3 -61 20 -65 26
-7 26 -13 -11 -85 l-31 -61 -34 59 c-18 32 -34 62 -34 67 0 4 11 12 25 17 24
9 25 14 25 85 l0 75 -65 0 c-50 0 -65 3 -65 14 0 10 16 17 48 21 26 3 54 7 62
8 8 1 15 11 15 22 0 18 -8 20 -62 23 -55 3 -63 6 -63 22 0 18 7 20 59 20 33 0
62 4 65 9 3 4 3 31 -1 60 l-6 51 -161 -2 -161 -3 -7 -25 c-3 -14 -14 -70 -23
-125 -35 -213 -122 -495 -152 -495 -17 0 -18 -5 21 96 51 132 105 363 121 519
l6 61 137 3 c75 3 155 5 177 5 l40 1 3 85 c5 140 18 130 -168 130 l-160 0 0
89 0 88 61 7 c34 3 106 6 160 6 l99 0 0 85 c0 95 12 83 -102 105 -106 21 -204
84 -274 175 -24 33 -47 86 -64 153 -11 42 -11 42 -55 42 -38 0 -45 3 -45 20 0
18 7 20 64 20 l63 0 7 -49 c14 -106 103 -229 205 -285 63 -34 181 -62 192 -45
7 11 2 189 -6 215 -2 6 -19 14 -38 18 -45 8 -102 66 -115 117 -9 35 -8 40 6
37 9 -2 18 -12 21 -23 9 -49 93 -117 122 -99 5 3 9 34 9 70 0 48 3 64 14 64 9
0 16 -20 21 -65 5 -52 10 -65 24 -65 39 0 91 62 91 110 0 13 7 20 20 20 23 0
24 -5 9 -51 -15 -43 -64 -97 -107 -114 l-33 -14 3 -108 c3 -127 2 -126 108
-94 82 25 158 83 212 162 36 53 68 147 68 201 0 28 1 28 65 28 58 0 65 -2 65
-20z m60 -853 c0 -23 7 -87 15 -142 18 -127 18 -183 -1 -100 -7 33 -11 67 -8
76 2 9 -4 23 -13 32 -15 13 -17 29 -15 101 3 87 22 114 22 33z m-1260 -206
c-5 -29 -12 -56 -15 -59 -7 -7 -6 78 1 106 12 44 22 7 14 -47z m1319 -186 c0
-18 -1 -17 -14 5 -8 14 -14 39 -14 55 l1 30 13 -35 c7 -19 14 -44 14 -55z"/>
<path d="M1460 1551 l-95 -6 -3 -57 -3 -58 73 0 c40 0 103 3 141 7 l67 6 0 53
c0 53 -1 54 -29 54 -16 0 -35 1 -43 3 -7 2 -56 1 -108 -2z"/>
<path d="M1138 1543 l-98 -4 0 -61 0 -61 98 6 c53 4 116 7 140 7 l43 0 -3 58
-3 57 -40 1 c-22 0 -84 -1 -137 -3z"/>
</g>
</svg>
